<svg width="645.0" height="1376.5" viewBox="0 0 645.0 1376.5" xmlns="http://www.w3.org/2000/svg"><style>
    svg {
        font-family: SFMono-Regular,Consolas,Liberation Mono,Menlo,monospace;
        font-size: 14px;
        font-kerning: normal;
        text-rendering: optimizeLegibility;
        fill: #24292e;
    }

    rect {
        fill: #f6f8fa;
    }

    .held {
        fill: #fdd;
    }
</style><rect rx="6" ry="6" x="29.5" y="236.0" width="55" height="55" class="" /><text text-anchor="middle" dominant-baseline="middle" x="57.0" y="263.5">mute</text><rect rx="6" ry="6" x="29.5" y="295.0" width="55" height="55" class="" /><text text-anchor="middle" dominant-baseline="middle" x="57.0" y="322.5">rgb</text><rect rx="6" ry="6" x="29.5" y="354.0" width="55" height="55" class="" /><text text-anchor="middle" dominant-baseline="middle" x="57.0" y="381.5">nav</text><rect rx="6" ry="6" x="118.0" y="29.5" width="55" height="55" class="" /><text text-anchor="middle" dominant-baseline="middle" x="145.5" y="57.0">f17</text><rect rx="6" ry="6" x="177.0" y="29.5" width="55" height="55" class="" /><text text-anchor="middle" dominant-baseline="middle" x="204.5" y="57.0">f18</text><rect rx="6" ry="6" x="236.0" y="29.5" width="55" height="55" class="" /><text text-anchor="middle" dominant-baseline="middle" x="263.5" y="57.0">f19</text><rect rx="6" ry="6" x="295.0" y="29.5" width="55" height="55" class="" /><text text-anchor="middle" dominant-baseline="middle" x="322.5" y="57.0">f20</text><rect rx="6" ry="6" x="118.0" y="118.0" width="55" height="55" class="" /><text text-anchor="middle" dominant-baseline="middle" x="145.5" y="145.5">bspc</text><rect rx="6" ry="6" x="177.0" y="118.0" width="55" height="55" class="" /><text text-anchor="middle" dominant-baseline="middle" x="204.5" y="145.5">div</text><rect rx="6" ry="6" x="236.0" y="118.0" width="55" height="55" class="" /><text text-anchor="middle" dominant-baseline="middle" x="263.5" y="145.5">mult</text><rect rx="6" ry="6" x="295.0" y="118.0" width="55" height="55" class="" /><text text-anchor="middle" dominant-baseline="middle" x="322.5" y="145.5">minus</text><rect rx="6" ry="6" x="118.0" y="177.0" width="55" height="55" class="" /><text text-anchor="middle" dominant-baseline="middle" x="145.5" y="204.5">7</text><rect rx="6" ry="6" x="177.0" y="177.0" width="55" height="55" class="" /><text text-anchor="middle" dominant-baseline="middle" x="204.5" y="204.5">8</text><rect rx="6" ry="6" x="236.0" y="177.0" width="55" height="55" class="" /><text text-anchor="middle" dominant-baseline="middle" x="263.5" y="204.5">9</text><rect rx="6" ry="6" x="295.0" y="177.0" width="55" height="114" class="" /><text text-anchor="middle" dominant-baseline="middle" x="322.5" y="204.5">plus</text><rect rx="6" ry="6" x="118.0" y="236.0" width="55" height="55" class="" /><text text-anchor="middle" dominant-baseline="middle" x="145.5" y="263.5">4</text><rect rx="6" ry="6" x="177.0" y="236.0" width="55" height="55" class="" /><text text-anchor="middle" dominant-baseline="middle" x="204.5" y="263.5">5</text><rect rx="6" ry="6" x="236.0" y="236.0" width="55" height="55" class="" /><text text-anchor="middle" dominant-baseline="middle" x="263.5" y="263.5">6</text><rect rx="6" ry="6" x="118.0" y="295.0" width="55" height="55" class="" /><text text-anchor="middle" dominant-baseline="middle" x="145.5" y="322.5">1</text><rect rx="6" ry="6" x="177.0" y="295.0" width="55" height="55" class="" /><text text-anchor="middle" dominant-baseline="middle" x="204.5" y="322.5">2</text><rect rx="6" ry="6" x="236.0" y="295.0" width="55" height="55" class="" /><text text-anchor="middle" dominant-baseline="middle" x="263.5" y="322.5">3</text><rect rx="6" ry="6" x="295.0" y="295.0" width="55" height="114" class="" /><text text-anchor="middle" dominant-baseline="middle" x="322.5" y="322.5">enter</text><rect rx="6" ry="6" x="118.0" y="354.0" width="114" height="55" class="" /><text text-anchor="middle" dominant-baseline="middle" x="145.5" y="381.5">0</text><rect rx="6" ry="6" x="236.0" y="354.0" width="55" height="55" class="" /><text text-anchor="middle" dominant-baseline="middle" x="263.5" y="381.5">.</text><rect rx="6" ry="6" x="29.5" y="676.5" width="55" height="55" class="" /><text text-anchor="middle" dominant-baseline="middle" x="57.0" y="704.0">mute</text><rect rx="6" ry="6" x="29.5" y="735.5" width="55" height="55" class="" /><text text-anchor="middle" dominant-baseline="middle" x="57.0" y="763.0">default</text><rect rx="6" ry="6" x="29.5" y="794.5" width="55" height="55" class="" /><text text-anchor="middle" dominant-baseline="middle" x="57.0" y="822.0">rgb</text><rect rx="6" ry="6" x="118.0" y="470.0" width="55" height="55" class="" /><text text-anchor="middle" dominant-baseline="middle" x="145.5" y="497.5">f17</text><rect rx="6" ry="6" x="177.0" y="470.0" width="55" height="55" class="" /><text text-anchor="middle" dominant-baseline="middle" x="204.5" y="497.5">f18</text><rect rx="6" ry="6" x="236.0" y="470.0" width="55" height="55" class="" /><text text-anchor="middle" dominant-baseline="middle" x="263.5" y="497.5">f19</text><rect rx="6" ry="6" x="295.0" y="470.0" width="55" height="55" class="" /><text text-anchor="middle" dominant-baseline="middle" x="322.5" y="497.5">f20</text><rect rx="6" ry="6" x="118.0" y="558.5" width="55" height="55" class="" /><text text-anchor="middle" dominant-baseline="middle" x="145.5" y="586.0">\</text><rect rx="6" ry="6" x="177.0" y="558.5" width="55" height="55" class="" /><rect rx="6" ry="6" x="236.0" y="558.5" width="55" height="55" class="" /><rect rx="6" ry="6" x="295.0" y="558.5" width="55" height="55" class="" /><rect rx="6" ry="6" x="118.0" y="617.5" width="55" height="55" class="" /><text text-anchor="middle" dominant-baseline="middle" x="145.5" y="645.0">&lt;</text><rect rx="6" ry="6" x="177.0" y="617.5" width="55" height="55" class="" /><text text-anchor="middle" dominant-baseline="middle" x="204.5" y="645.0">&gt;</text><rect rx="6" ry="6" x="236.0" y="617.5" width="55" height="55" class="" /><rect rx="6" ry="6" x="295.0" y="617.5" width="55" height="114" class="" /><rect rx="6" ry="6" x="118.0" y="676.5" width="55" height="55" class="" /><rect rx="6" ry="6" x="177.0" y="676.5" width="55" height="55" class="" /><text text-anchor="middle" dominant-baseline="middle" x="204.5" y="704.0">up</text><rect rx="6" ry="6" x="236.0" y="676.5" width="55" height="55" class="" /><rect rx="6" ry="6" x="118.0" y="735.5" width="55" height="55" class="" /><text text-anchor="middle" dominant-baseline="middle" x="145.5" y="763.0">left</text><rect rx="6" ry="6" x="177.0" y="735.5" width="55" height="55" class="" /><text text-anchor="middle" dominant-baseline="middle" x="204.5" y="763.0">down</text><rect rx="6" ry="6" x="236.0" y="735.5" width="55" height="55" class="" /><text text-anchor="middle" dominant-baseline="middle" x="263.5" y="763.0">right</text><rect rx="6" ry="6" x="295.0" y="735.5" width="55" height="114" class="" /><rect rx="6" ry="6" x="118.0" y="794.5" width="114" height="55" class="" /><rect rx="6" ry="6" x="236.0" y="794.5" width="55" height="55" class="" /><rect rx="6" ry="6" x="29.5" y="1117.0" width="55" height="55" class="" /><text text-anchor="middle" dominant-baseline="middle" x="57.0" y="1144.5">mute</text><rect rx="6" ry="6" x="29.5" y="1176.0" width="55" height="55" class="" /><text text-anchor="middle" dominant-baseline="middle" x="57.0" y="1203.5">nav</text><rect rx="6" ry="6" x="29.5" y="1235.0" width="55" height="55" class="" /><text text-anchor="middle" dominant-baseline="middle" x="57.0" y="1262.5">default</text><rect rx="6" ry="6" x="118.0" y="910.5" width="55" height="55" class="" /><text text-anchor="middle" dominant-baseline="middle" x="145.5" y="938.0">f17</text><rect rx="6" ry="6" x="177.0" y="910.5" width="55" height="55" class="" /><text text-anchor="middle" dominant-baseline="middle" x="204.5" y="938.0">f18</text><rect rx="6" ry="6" x="236.0" y="910.5" width="55" height="55" class="" /><text text-anchor="middle" dominant-baseline="middle" x="263.5" y="938.0">f19</text><rect rx="6" ry="6" x="295.0" y="910.5" width="55" height="55" class="" /><text text-anchor="middle" dominant-baseline="middle" x="322.5" y="938.0">f20</text><rect rx="6" ry="6" x="118.0" y="999.0" width="55" height="55" class="" /><text text-anchor="middle" dominant-baseline="middle" x="145.5" y="1017.5">rgb</text><text text-anchor="middle" dominant-baseline="middle" x="145.5" y="1035.5">tog</text><rect rx="6" ry="6" x="177.0" y="999.0" width="55" height="55" class="" /><rect rx="6" ry="6" x="236.0" y="999.0" width="55" height="55" class="" /><rect rx="6" ry="6" x="295.0" y="999.0" width="55" height="55" class="" /><rect rx="6" ry="6" x="118.0" y="1058.0" width="55" height="55" class="" /><text text-anchor="middle" dominant-baseline="middle" x="145.5" y="1076.5">hue</text><text text-anchor="middle" dominant-baseline="middle" x="145.5" y="1094.5">down</text><rect rx="6" ry="6" x="177.0" y="1058.0" width="55" height="55" class="" /><text text-anchor="middle" dominant-baseline="middle" x="204.5" y="1076.5">hue</text><text text-anchor="middle" dominant-baseline="middle" x="204.5" y="1094.5">up</text><rect rx="6" ry="6" x="236.0" y="1058.0" width="55" height="55" class="" /><rect rx="6" ry="6" x="295.0" y="1058.0" width="55" height="114" class="" /><rect rx="6" ry="6" x="118.0" y="1117.0" width="55" height="55" class="" /><text text-anchor="middle" dominant-baseline="middle" x="145.5" y="1135.5">sat</text><text text-anchor="middle" dominant-baseline="middle" x="145.5" y="1153.5">down</text><rect rx="6" ry="6" x="177.0" y="1117.0" width="55" height="55" class="" /><text text-anchor="middle" dominant-baseline="middle" x="204.5" y="1135.5">sat</text><text text-anchor="middle" dominant-baseline="middle" x="204.5" y="1153.5">up</text><rect rx="6" ry="6" x="236.0" y="1117.0" width="55" height="55" class="" /><rect rx="6" ry="6" x="118.0" y="1176.0" width="55" height="55" class="" /><text text-anchor="middle" dominant-baseline="middle" x="145.5" y="1194.5">bri</text><text text-anchor="middle" dominant-baseline="middle" x="145.5" y="1212.5">down</text><rect rx="6" ry="6" x="177.0" y="1176.0" width="55" height="55" class="" /><text text-anchor="middle" dominant-baseline="middle" x="204.5" y="1194.5">bri</text><text text-anchor="middle" dominant-baseline="middle" x="204.5" y="1212.5">up</text><rect rx="6" ry="6" x="236.0" y="1176.0" width="55" height="55" class="" /><rect rx="6" ry="6" x="295.0" y="1176.0" width="55" height="114" class="" /><rect rx="6" ry="6" x="118.0" y="1235.0" width="114" height="55" class="" /><rect rx="6" ry="6" x="236.0" y="1235.0" width="55" height="55" class="" /></svg>