<svg width="672.5" height="896.5" viewBox="0 0 672.5 896.5" xmlns="http://www.w3.org/2000/svg">
<style>
    svg {
        font-family: SFMono-Regular,Consolas,Liberation Mono,Menlo,monospace;
        font-size: 14px;
        font-kerning: normal;
        text-rendering: optimizeLegibility;
        fill: #24292e;
    }

    rect {
        fill: #f6f8fa;
    }

    .held {
        fill: #fdd;
    }
</style>
<rect rx="6" ry="6" x="29.5" y="24.5" width="55" height="45" class="" />
<rect rx="6" ry="6" x="88.5" y="24.5" width="55" height="45" class="" />
<text text-anchor="middle" dominant-baseline="middle" x="116.0" y="47.0">f17</text>
<rect rx="6" ry="6" x="147.5" y="24.5" width="55" height="45" class="" />
<text text-anchor="middle" dominant-baseline="middle" x="175.0" y="47.0">f18</text>
<rect rx="6" ry="6" x="206.5" y="24.5" width="55" height="45" class="" />
<text text-anchor="middle" dominant-baseline="middle" x="234.0" y="47.0">f19</text>
<rect rx="6" ry="6" x="265.5" y="24.5" width="55" height="45" class="" />
<text text-anchor="middle" dominant-baseline="middle" x="293.0" y="47.0">f20</text>
<rect rx="6" ry="6" x="29.5" y="73.5" width="55" height="45" class="" />
<rect rx="6" ry="6" x="88.5" y="73.5" width="55" height="45" class="" />
<text text-anchor="middle" dominant-baseline="middle" x="116.0" y="96.0">backspace</text>
<rect rx="6" ry="6" x="147.5" y="73.5" width="55" height="45" class="" />
<text text-anchor="middle" dominant-baseline="middle" x="175.0" y="96.0">divide</text>
<rect rx="6" ry="6" x="206.5" y="73.5" width="55" height="45" class="" />
<text text-anchor="middle" dominant-baseline="middle" x="234.0" y="96.0">multiply</text>
<rect rx="6" ry="6" x="265.5" y="73.5" width="55" height="45" class="" />
<text text-anchor="middle" dominant-baseline="middle" x="293.0" y="96.0">minus</text>
<rect rx="6" ry="6" x="29.5" y="122.5" width="55" height="45" class="" />
<rect rx="6" ry="6" x="88.5" y="122.5" width="55" height="45" class="" />
<text text-anchor="middle" dominant-baseline="middle" x="116.0" y="145.0">7</text>
<rect rx="6" ry="6" x="147.5" y="122.5" width="55" height="45" class="" />
<text text-anchor="middle" dominant-baseline="middle" x="175.0" y="145.0">8</text>
<rect rx="6" ry="6" x="206.5" y="122.5" width="55" height="45" class="" />
<text text-anchor="middle" dominant-baseline="middle" x="234.0" y="145.0">9</text>
<rect rx="6" ry="6" x="265.5" y="122.5" width="55" height="45" class="" />
<text text-anchor="middle" dominant-baseline="middle" x="293.0" y="145.0">plus</text>
<rect rx="6" ry="6" x="29.5" y="171.5" width="55" height="45" class="" />
<text text-anchor="middle" dominant-baseline="middle" x="57.0" y="194.0">mute</text>
<rect rx="6" ry="6" x="88.5" y="171.5" width="55" height="45" class="" />
<text text-anchor="middle" dominant-baseline="middle" x="116.0" y="194.0">4</text>
<rect rx="6" ry="6" x="147.5" y="171.5" width="55" height="45" class="" />
<text text-anchor="middle" dominant-baseline="middle" x="175.0" y="194.0">5</text>
<rect rx="6" ry="6" x="206.5" y="171.5" width="55" height="45" class="" />
<text text-anchor="middle" dominant-baseline="middle" x="234.0" y="194.0">6</text>
<rect rx="6" ry="6" x="265.5" y="171.5" width="55" height="45" class="" />
<rect rx="6" ry="6" x="29.5" y="220.5" width="55" height="45" class="" />
<text text-anchor="middle" dominant-baseline="middle" x="57.0" y="243.0">rgb</text>
<rect rx="6" ry="6" x="88.5" y="220.5" width="55" height="45" class="" />
<text text-anchor="middle" dominant-baseline="middle" x="116.0" y="243.0">1</text>
<rect rx="6" ry="6" x="147.5" y="220.5" width="55" height="45" class="" />
<text text-anchor="middle" dominant-baseline="middle" x="175.0" y="243.0">2</text>
<rect rx="6" ry="6" x="206.5" y="220.5" width="55" height="45" class="" />
<text text-anchor="middle" dominant-baseline="middle" x="234.0" y="243.0">3</text>
<rect rx="6" ry="6" x="265.5" y="220.5" width="55" height="45" class="" />
<text text-anchor="middle" dominant-baseline="middle" x="293.0" y="243.0">enter</text>
<rect rx="6" ry="6" x="29.5" y="269.5" width="55" height="45" class="" />
<text text-anchor="middle" dominant-baseline="middle" x="57.0" y="292.0">nav</text>
<rect rx="6" ry="6" x="88.5" y="269.5" width="55" height="45" class="" />
<text text-anchor="middle" dominant-baseline="middle" x="116.0" y="292.0">0</text>
<rect rx="6" ry="6" x="147.5" y="269.5" width="55" height="45" class="" />
<rect rx="6" ry="6" x="206.5" y="269.5" width="55" height="45" class="" />
<text text-anchor="middle" dominant-baseline="middle" x="234.0" y="292.0">.</text>
<rect rx="6" ry="6" x="265.5" y="269.5" width="55" height="45" class="" />
<rect rx="6" ry="6" x="29.5" y="243.0" width="55" height="45" class="" />
<rect rx="6" ry="6" x="88.5" y="243.0" width="55" height="45" class="" />
<text text-anchor="middle" dominant-baseline="middle" x="116.0" y="265.5">f17</text>
<rect rx="6" ry="6" x="147.5" y="243.0" width="55" height="45" class="" />
<text text-anchor="middle" dominant-baseline="middle" x="175.0" y="265.5">f18</text>
<rect rx="6" ry="6" x="206.5" y="243.0" width="55" height="45" class="" />
<text text-anchor="middle" dominant-baseline="middle" x="234.0" y="265.5">f19</text>
<rect rx="6" ry="6" x="265.5" y="243.0" width="55" height="45" class="" />
<text text-anchor="middle" dominant-baseline="middle" x="293.0" y="265.5">f20</text>
<rect rx="6" ry="6" x="29.5" y="292.0" width="55" height="45" class="" />
<rect rx="6" ry="6" x="88.5" y="292.0" width="55" height="45" class="" />
<text text-anchor="middle" dominant-baseline="middle" x="116.0" y="314.5">\</text>
<rect rx="6" ry="6" x="147.5" y="292.0" width="55" height="45" class="" />
<rect rx="6" ry="6" x="206.5" y="292.0" width="55" height="45" class="" />
<rect rx="6" ry="6" x="265.5" y="292.0" width="55" height="45" class="" />
<rect rx="6" ry="6" x="29.5" y="341.0" width="55" height="45" class="" />
<rect rx="6" ry="6" x="88.5" y="341.0" width="55" height="45" class="" />
<text text-anchor="middle" dominant-baseline="middle" x="116.0" y="363.5"><</text>
<rect rx="6" ry="6" x="147.5" y="341.0" width="55" height="45" class="" />
<text text-anchor="middle" dominant-baseline="middle" x="175.0" y="363.5">></text>
<rect rx="6" ry="6" x="206.5" y="341.0" width="55" height="45" class="" />
<rect rx="6" ry="6" x="265.5" y="341.0" width="55" height="45" class="" />
<rect rx="6" ry="6" x="29.5" y="390.0" width="55" height="45" class="" />
<text text-anchor="middle" dominant-baseline="middle" x="57.0" y="412.5">mute</text>
<rect rx="6" ry="6" x="88.5" y="390.0" width="55" height="45" class="" />
<rect rx="6" ry="6" x="147.5" y="390.0" width="55" height="45" class="" />
<text text-anchor="middle" dominant-baseline="middle" x="175.0" y="412.5">up</text>
<rect rx="6" ry="6" x="206.5" y="390.0" width="55" height="45" class="" />
<rect rx="6" ry="6" x="265.5" y="390.0" width="55" height="45" class="" />
<rect rx="6" ry="6" x="29.5" y="439.0" width="55" height="45" class="" />
<text text-anchor="middle" dominant-baseline="middle" x="57.0" y="461.5">default</text>
<rect rx="6" ry="6" x="88.5" y="439.0" width="55" height="45" class="" />
<text text-anchor="middle" dominant-baseline="middle" x="116.0" y="461.5">left</text>
<rect rx="6" ry="6" x="147.5" y="439.0" width="55" height="45" class="" />
<text text-anchor="middle" dominant-baseline="middle" x="175.0" y="461.5">down</text>
<rect rx="6" ry="6" x="206.5" y="439.0" width="55" height="45" class="" />
<text text-anchor="middle" dominant-baseline="middle" x="234.0" y="461.5">right</text>
<rect rx="6" ry="6" x="265.5" y="439.0" width="55" height="45" class="" />
<rect rx="6" ry="6" x="29.5" y="488.0" width="55" height="45" class="" />
<text text-anchor="middle" dominant-baseline="middle" x="57.0" y="510.5">rgb</text>
<rect rx="6" ry="6" x="88.5" y="488.0" width="55" height="45" class="" />
<rect rx="6" ry="6" x="147.5" y="488.0" width="55" height="45" class="" />
<rect rx="6" ry="6" x="206.5" y="488.0" width="55" height="45" class="" />
<rect rx="6" ry="6" x="265.5" y="488.0" width="55" height="45" class="" />
<rect rx="6" ry="6" x="29.5" y="461.5" width="55" height="45" class="" />
<rect rx="6" ry="6" x="88.5" y="461.5" width="55" height="45" class="" />
<text text-anchor="middle" dominant-baseline="middle" x="116.0" y="484.0">f17</text>
<rect rx="6" ry="6" x="147.5" y="461.5" width="55" height="45" class="" />
<text text-anchor="middle" dominant-baseline="middle" x="175.0" y="484.0">f18</text>
<rect rx="6" ry="6" x="206.5" y="461.5" width="55" height="45" class="" />
<text text-anchor="middle" dominant-baseline="middle" x="234.0" y="484.0">f19</text>
<rect rx="6" ry="6" x="265.5" y="461.5" width="55" height="45" class="" />
<text text-anchor="middle" dominant-baseline="middle" x="293.0" y="484.0">f20</text>
<rect rx="6" ry="6" x="29.5" y="510.5" width="55" height="45" class="" />
<rect rx="6" ry="6" x="88.5" y="510.5" width="55" height="45" class="" />
<text text-anchor="middle" dominant-baseline="middle" x="116.0" y="524.0">toggle</text>
<text text-anchor="middle" dominant-baseline="middle" x="116.0" y="542.0">rgb</text>
<rect rx="6" ry="6" x="147.5" y="510.5" width="55" height="45" class="" />
<rect rx="6" ry="6" x="206.5" y="510.5" width="55" height="45" class="" />
<rect rx="6" ry="6" x="265.5" y="510.5" width="55" height="45" class="" />
<rect rx="6" ry="6" x="29.5" y="559.5" width="55" height="45" class="" />
<rect rx="6" ry="6" x="88.5" y="559.5" width="55" height="45" class="" />
<text text-anchor="middle" dominant-baseline="middle" x="116.0" y="573.0">hue</text>
<text text-anchor="middle" dominant-baseline="middle" x="116.0" y="591.0">down</text>
<rect rx="6" ry="6" x="147.5" y="559.5" width="55" height="45" class="" />
<text text-anchor="middle" dominant-baseline="middle" x="175.0" y="573.0">hue</text>
<text text-anchor="middle" dominant-baseline="middle" x="175.0" y="591.0">up</text>
<rect rx="6" ry="6" x="206.5" y="559.5" width="55" height="45" class="" />
<rect rx="6" ry="6" x="265.5" y="559.5" width="55" height="45" class="" />
<rect rx="6" ry="6" x="29.5" y="608.5" width="55" height="45" class="" />
<text text-anchor="middle" dominant-baseline="middle" x="57.0" y="631.0">mute</text>
<rect rx="6" ry="6" x="88.5" y="608.5" width="55" height="45" class="" />
<text text-anchor="middle" dominant-baseline="middle" x="116.0" y="622.0">saturation</text>
<text text-anchor="middle" dominant-baseline="middle" x="116.0" y="640.0">down</text>
<rect rx="6" ry="6" x="147.5" y="608.5" width="55" height="45" class="" />
<text text-anchor="middle" dominant-baseline="middle" x="175.0" y="622.0">saturation</text>
<text text-anchor="middle" dominant-baseline="middle" x="175.0" y="640.0">up</text>
<rect rx="6" ry="6" x="206.5" y="608.5" width="55" height="45" class="" />
<rect rx="6" ry="6" x="265.5" y="608.5" width="55" height="45" class="" />
<rect rx="6" ry="6" x="29.5" y="657.5" width="55" height="45" class="" />
<text text-anchor="middle" dominant-baseline="middle" x="57.0" y="680.0">nav</text>
<rect rx="6" ry="6" x="88.5" y="657.5" width="55" height="45" class="" />
<text text-anchor="middle" dominant-baseline="middle" x="116.0" y="671.0">brightness</text>
<text text-anchor="middle" dominant-baseline="middle" x="116.0" y="689.0">down</text>
<rect rx="6" ry="6" x="147.5" y="657.5" width="55" height="45" class="" />
<text text-anchor="middle" dominant-baseline="middle" x="175.0" y="671.0">brightness</text>
<text text-anchor="middle" dominant-baseline="middle" x="175.0" y="689.0">up</text>
<rect rx="6" ry="6" x="206.5" y="657.5" width="55" height="45" class="" />
<rect rx="6" ry="6" x="265.5" y="657.5" width="55" height="45" class="" />
<rect rx="6" ry="6" x="29.5" y="706.5" width="55" height="45" class="" />
<text text-anchor="middle" dominant-baseline="middle" x="57.0" y="729.0">default</text>
<rect rx="6" ry="6" x="88.5" y="706.5" width="55" height="45" class="" />
<rect rx="6" ry="6" x="147.5" y="706.5" width="55" height="45" class="" />
<rect rx="6" ry="6" x="206.5" y="706.5" width="55" height="45" class="" />
<rect rx="6" ry="6" x="265.5" y="706.5" width="55" height="45" class="" />
</svg>
