<svg width="672.5" height="896.5" viewBox="0 0 672.5 896.5" xmlns="http://www.w3.org/2000/svg">
<style>
    svg {
        font-family: SFMono-Regular,Consolas,Liberation Mono,Menlo,monospace;
        font-size: 14px;
        font-kerning: normal;
        text-rendering: optimizeLegibility;
        fill: #24292e;
    }

    rect {
        fill: #f6f8fa;
    }

    .held {
        fill: #fdd;
    }
</style>
<rect rx="6" ry="6" x="29.5" y="149" width="55" height="45" class="" />
<text text-anchor="middle" dominant-baseline="middle" x="57.0" y="171.5">mute</text>
<rect rx="6" ry="6" x="29.5" y="198" width="55" height="45" class="" />
<text text-anchor="middle" dominant-baseline="middle" x="57.0" y="220.5">rgb</text>
<rect rx="6" ry="6" x="29.5" y="247" width="55" height="45" class="" />
<text text-anchor="middle" dominant-baseline="middle" x="57.0" y="269.5">nav</text>
<rect rx="6" ry="6" x="118.0" y="2" width="55" height="45" class="" />
<text text-anchor="middle" dominant-baseline="middle" x="145.5" y="24.5">f17</text>
<rect rx="6" ry="6" x="177.0" y="2" width="55" height="45" class="" />
<text text-anchor="middle" dominant-baseline="middle" x="204.5" y="24.5">f18</text>
<rect rx="6" ry="6" x="236.0" y="2" width="55" height="45" class="" />
<text text-anchor="middle" dominant-baseline="middle" x="263.5" y="24.5">f19</text>
<rect rx="6" ry="6" x="295.0" y="2" width="55" height="45" class="" />
<text text-anchor="middle" dominant-baseline="middle" x="322.5" y="24.5">f20</text>
<rect rx="6" ry="6" x="118.0" y="75.5" width="55" height="45" class="" />
<text text-anchor="middle" dominant-baseline="middle" x="145.5" y="98.0">backspace</text>
<rect rx="6" ry="6" x="177.0" y="75.5" width="55" height="45" class="" />
<text text-anchor="middle" dominant-baseline="middle" x="204.5" y="98.0">divide</text>
<rect rx="6" ry="6" x="236.0" y="75.5" width="55" height="45" class="" />
<text text-anchor="middle" dominant-baseline="middle" x="263.5" y="98.0">multiply</text>
<rect rx="6" ry="6" x="295.0" y="75.5" width="55" height="45" class="" />
<text text-anchor="middle" dominant-baseline="middle" x="322.5" y="98.0">minus</text>
<rect rx="6" ry="6" x="118.0" y="124.5" width="55" height="45" class="" />
<text text-anchor="middle" dominant-baseline="middle" x="145.5" y="147.0">7</text>
<rect rx="6" ry="6" x="177.0" y="124.5" width="55" height="45" class="" />
<text text-anchor="middle" dominant-baseline="middle" x="204.5" y="147.0">8</text>
<rect rx="6" ry="6" x="236.0" y="124.5" width="55" height="45" class="" />
<text text-anchor="middle" dominant-baseline="middle" x="263.5" y="147.0">9</text>
<rect rx="6" ry="6" x="295.0" y="124.5" width="55" height="45" class="" />
<text text-anchor="middle" dominant-baseline="middle" x="322.5" y="147.0">plus</text>
<rect rx="6" ry="6" x="118.0" y="173.5" width="55" height="45" class="" />
<text text-anchor="middle" dominant-baseline="middle" x="145.5" y="196.0">4</text>
<rect rx="6" ry="6" x="177.0" y="173.5" width="55" height="45" class="" />
<text text-anchor="middle" dominant-baseline="middle" x="204.5" y="196.0">5</text>
<rect rx="6" ry="6" x="236.0" y="173.5" width="55" height="45" class="" />
<text text-anchor="middle" dominant-baseline="middle" x="263.5" y="196.0">6</text>
<rect rx="6" ry="6" x="295.0" y="173.5" width="55" height="45" class="" />
<rect rx="6" ry="6" x="118.0" y="222.5" width="55" height="45" class="" />
<text text-anchor="middle" dominant-baseline="middle" x="145.5" y="245.0">1</text>
<rect rx="6" ry="6" x="177.0" y="222.5" width="55" height="45" class="" />
<text text-anchor="middle" dominant-baseline="middle" x="204.5" y="245.0">2</text>
<rect rx="6" ry="6" x="236.0" y="222.5" width="55" height="45" class="" />
<text text-anchor="middle" dominant-baseline="middle" x="263.5" y="245.0">3</text>
<rect rx="6" ry="6" x="295.0" y="222.5" width="55" height="45" class="" />
<text text-anchor="middle" dominant-baseline="middle" x="322.5" y="245.0">enter</text>
<rect rx="6" ry="6" x="118.0" y="271.5" width="55" height="45" class="" />
<text text-anchor="middle" dominant-baseline="middle" x="145.5" y="294.0">0</text>
<rect rx="6" ry="6" x="177.0" y="271.5" width="55" height="45" class="" />
<rect rx="6" ry="6" x="236.0" y="271.5" width="55" height="45" class="" />
<text text-anchor="middle" dominant-baseline="middle" x="263.5" y="294.0">.</text>
<rect rx="6" ry="6" x="295.0" y="271.5" width="55" height="45" class="" />
<rect rx="6" ry="6" x="29.5" y="345" width="55" height="45" class="" />
<text text-anchor="middle" dominant-baseline="middle" x="57.0" y="367.5">mute</text>
<rect rx="6" ry="6" x="29.5" y="394" width="55" height="45" class="" />
<text text-anchor="middle" dominant-baseline="middle" x="57.0" y="416.5">default</text>
<rect rx="6" ry="6" x="29.5" y="443" width="55" height="45" class="" />
<text text-anchor="middle" dominant-baseline="middle" x="57.0" y="465.5">rgb</text>
<rect rx="6" ry="6" x="118.0" y="198" width="55" height="45" class="" />
<text text-anchor="middle" dominant-baseline="middle" x="145.5" y="220.5">f17</text>
<rect rx="6" ry="6" x="177.0" y="198" width="55" height="45" class="" />
<text text-anchor="middle" dominant-baseline="middle" x="204.5" y="220.5">f18</text>
<rect rx="6" ry="6" x="236.0" y="198" width="55" height="45" class="" />
<text text-anchor="middle" dominant-baseline="middle" x="263.5" y="220.5">f19</text>
<rect rx="6" ry="6" x="295.0" y="198" width="55" height="45" class="" />
<text text-anchor="middle" dominant-baseline="middle" x="322.5" y="220.5">f20</text>
<rect rx="6" ry="6" x="118.0" y="271.5" width="55" height="45" class="" />
<text text-anchor="middle" dominant-baseline="middle" x="145.5" y="294.0">\</text>
<rect rx="6" ry="6" x="177.0" y="271.5" width="55" height="45" class="" />
<rect rx="6" ry="6" x="236.0" y="271.5" width="55" height="45" class="" />
<rect rx="6" ry="6" x="295.0" y="271.5" width="55" height="45" class="" />
<rect rx="6" ry="6" x="118.0" y="320.5" width="55" height="45" class="" />
<text text-anchor="middle" dominant-baseline="middle" x="145.5" y="343.0">/lt;</text>
<rect rx="6" ry="6" x="177.0" y="320.5" width="55" height="45" class="" />
<text text-anchor="middle" dominant-baseline="middle" x="204.5" y="343.0">&gt;</text>
<rect rx="6" ry="6" x="236.0" y="320.5" width="55" height="45" class="" />
<rect rx="6" ry="6" x="295.0" y="320.5" width="55" height="45" class="" />
<rect rx="6" ry="6" x="118.0" y="369.5" width="55" height="45" class="" />
<rect rx="6" ry="6" x="177.0" y="369.5" width="55" height="45" class="" />
<text text-anchor="middle" dominant-baseline="middle" x="204.5" y="392.0">up</text>
<rect rx="6" ry="6" x="236.0" y="369.5" width="55" height="45" class="" />
<rect rx="6" ry="6" x="295.0" y="369.5" width="55" height="45" class="" />
<rect rx="6" ry="6" x="118.0" y="418.5" width="55" height="45" class="" />
<text text-anchor="middle" dominant-baseline="middle" x="145.5" y="441.0">left</text>
<rect rx="6" ry="6" x="177.0" y="418.5" width="55" height="45" class="" />
<text text-anchor="middle" dominant-baseline="middle" x="204.5" y="441.0">down</text>
<rect rx="6" ry="6" x="236.0" y="418.5" width="55" height="45" class="" />
<text text-anchor="middle" dominant-baseline="middle" x="263.5" y="441.0">right</text>
<rect rx="6" ry="6" x="295.0" y="418.5" width="55" height="45" class="" />
<rect rx="6" ry="6" x="118.0" y="467.5" width="55" height="45" class="" />
<rect rx="6" ry="6" x="177.0" y="467.5" width="55" height="45" class="" />
<rect rx="6" ry="6" x="236.0" y="467.5" width="55" height="45" class="" />
<rect rx="6" ry="6" x="295.0" y="467.5" width="55" height="45" class="" />
<rect rx="6" ry="6" x="29.5" y="541" width="55" height="45" class="" />
<text text-anchor="middle" dominant-baseline="middle" x="57.0" y="563.5">mute</text>
<rect rx="6" ry="6" x="29.5" y="590" width="55" height="45" class="" />
<text text-anchor="middle" dominant-baseline="middle" x="57.0" y="612.5">nav</text>
<rect rx="6" ry="6" x="29.5" y="639" width="55" height="45" class="" />
<text text-anchor="middle" dominant-baseline="middle" x="57.0" y="661.5">default</text>
<rect rx="6" ry="6" x="118.0" y="394" width="55" height="45" class="" />
<text text-anchor="middle" dominant-baseline="middle" x="145.5" y="416.5">f17</text>
<rect rx="6" ry="6" x="177.0" y="394" width="55" height="45" class="" />
<text text-anchor="middle" dominant-baseline="middle" x="204.5" y="416.5">f18</text>
<rect rx="6" ry="6" x="236.0" y="394" width="55" height="45" class="" />
<text text-anchor="middle" dominant-baseline="middle" x="263.5" y="416.5">f19</text>
<rect rx="6" ry="6" x="295.0" y="394" width="55" height="45" class="" />
<text text-anchor="middle" dominant-baseline="middle" x="322.5" y="416.5">f20</text>
<rect rx="6" ry="6" x="118.0" y="467.5" width="55" height="45" class="" />
<text text-anchor="middle" dominant-baseline="middle" x="145.5" y="481.0">toggle</text>
<text text-anchor="middle" dominant-baseline="middle" x="145.5" y="499.0">rgb</text>
<rect rx="6" ry="6" x="177.0" y="467.5" width="55" height="45" class="" />
<rect rx="6" ry="6" x="236.0" y="467.5" width="55" height="45" class="" />
<rect rx="6" ry="6" x="295.0" y="467.5" width="55" height="45" class="" />
<rect rx="6" ry="6" x="118.0" y="516.5" width="55" height="45" class="" />
<text text-anchor="middle" dominant-baseline="middle" x="145.5" y="530.0">hue</text>
<text text-anchor="middle" dominant-baseline="middle" x="145.5" y="548.0">down</text>
<rect rx="6" ry="6" x="177.0" y="516.5" width="55" height="45" class="" />
<text text-anchor="middle" dominant-baseline="middle" x="204.5" y="530.0">hue</text>
<text text-anchor="middle" dominant-baseline="middle" x="204.5" y="548.0">up</text>
<rect rx="6" ry="6" x="236.0" y="516.5" width="55" height="45" class="" />
<rect rx="6" ry="6" x="295.0" y="516.5" width="55" height="45" class="" />
<rect rx="6" ry="6" x="118.0" y="565.5" width="55" height="45" class="" />
<text text-anchor="middle" dominant-baseline="middle" x="145.5" y="579.0">saturation</text>
<text text-anchor="middle" dominant-baseline="middle" x="145.5" y="597.0">down</text>
<rect rx="6" ry="6" x="177.0" y="565.5" width="55" height="45" class="" />
<text text-anchor="middle" dominant-baseline="middle" x="204.5" y="579.0">saturation</text>
<text text-anchor="middle" dominant-baseline="middle" x="204.5" y="597.0">up</text>
<rect rx="6" ry="6" x="236.0" y="565.5" width="55" height="45" class="" />
<rect rx="6" ry="6" x="295.0" y="565.5" width="55" height="45" class="" />
<rect rx="6" ry="6" x="118.0" y="614.5" width="55" height="45" class="" />
<text text-anchor="middle" dominant-baseline="middle" x="145.5" y="628.0">brightness</text>
<text text-anchor="middle" dominant-baseline="middle" x="145.5" y="646.0">down</text>
<rect rx="6" ry="6" x="177.0" y="614.5" width="55" height="45" class="" />
<text text-anchor="middle" dominant-baseline="middle" x="204.5" y="628.0">brightness</text>
<text text-anchor="middle" dominant-baseline="middle" x="204.5" y="646.0">up</text>
<rect rx="6" ry="6" x="236.0" y="614.5" width="55" height="45" class="" />
<rect rx="6" ry="6" x="295.0" y="614.5" width="55" height="45" class="" />
<rect rx="6" ry="6" x="118.0" y="663.5" width="55" height="45" class="" />
<rect rx="6" ry="6" x="177.0" y="663.5" width="55" height="45" class="" />
<rect rx="6" ry="6" x="236.0" y="663.5" width="55" height="45" class="" />
<rect rx="6" ry="6" x="295.0" y="663.5" width="55" height="45" class="" />
</svg>
