<svg width="645.0" height="1376.5" viewBox="0 0 645.0 1376.5" xmlns="http://www.w3.org/2000/svg"><style>
    svg {
        font-family: SFMono-Regular,Consolas,Liberation Mono,Menlo,monospace;
        font-size: 12px;
        font-kerning: normal;
        text-rendering: optimizeLegibility;
        fill: #fdd;
    }

    rect {
        fill: #24292e;
    }

    .inverse {
        fill: #fdd;
    }
    
    .text_inverted {
        fill: #24292e;
    }
</style><rect rx="6" ry="6" x="29.5" y="236.0" width="55" height="55" class="" /><text text-anchor="middle" dominant-baseline="middle" x="57.0" y="266.5" class="">mute</text><rect rx="6" ry="6" x="29.5" y="295.0" width="55" height="55" class="" /><text text-anchor="middle" dominant-baseline="middle" x="57.0" y="325.5" class="">rgb</text><rect rx="6" ry="6" x="29.5" y="354.0" width="55" height="55" class="" /><text text-anchor="middle" dominant-baseline="middle" x="57.0" y="384.5" class="">nav</text><rect rx="6" ry="6" x="118.0" y="29.5" width="55" height="55" class="inverse" /><text text-anchor="middle" dominant-baseline="middle" x="145.5" y="60.0" class="text_inverted">f17</text><rect rx="6" ry="6" x="177.0" y="29.5" width="55" height="55" class="inverse" /><text text-anchor="middle" dominant-baseline="middle" x="204.5" y="60.0" class="text_inverted">f18</text><rect rx="6" ry="6" x="236.0" y="29.5" width="55" height="55" class="inverse" /><text text-anchor="middle" dominant-baseline="middle" x="263.5" y="60.0" class="text_inverted">f19</text><rect rx="6" ry="6" x="295.0" y="29.5" width="55" height="55" class="inverse" /><text text-anchor="middle" dominant-baseline="middle" x="322.5" y="60.0" class="text_inverted">f20</text><rect rx="6" ry="6" x="118.0" y="118.0" width="55" height="55" class="" /><text text-anchor="middle" dominant-baseline="middle" x="145.5" y="148.5" class="">bspc</text><rect rx="6" ry="6" x="177.0" y="118.0" width="55" height="55" class="" /><text text-anchor="middle" dominant-baseline="middle" x="204.5" y="148.5" class="">div</text><rect rx="6" ry="6" x="236.0" y="118.0" width="55" height="55" class="" /><text text-anchor="middle" dominant-baseline="middle" x="263.5" y="148.5" class="">mult</text><rect rx="6" ry="6" x="295.0" y="118.0" width="55" height="55" class="" /><text text-anchor="middle" dominant-baseline="middle" x="322.5" y="148.5" class="">minus</text><rect rx="6" ry="6" x="118.0" y="177.0" width="55" height="55" class="" /><text text-anchor="middle" dominant-baseline="middle" x="145.5" y="207.5" class="">7</text><rect rx="6" ry="6" x="177.0" y="177.0" width="55" height="55" class="" /><text text-anchor="middle" dominant-baseline="middle" x="204.5" y="207.5" class="">8</text><rect rx="6" ry="6" x="236.0" y="177.0" width="55" height="55" class="" /><text text-anchor="middle" dominant-baseline="middle" x="263.5" y="207.5" class="">9</text><rect rx="6" ry="6" x="295.0" y="177.0" width="55" height="114" class="" /><text text-anchor="middle" dominant-baseline="middle" x="322.5" y="237.0" class="">plus</text><rect rx="6" ry="6" x="118.0" y="236.0" width="55" height="55" class="" /><text text-anchor="middle" dominant-baseline="middle" x="145.5" y="266.5" class="">4</text><rect rx="6" ry="6" x="177.0" y="236.0" width="55" height="55" class="" /><text text-anchor="middle" dominant-baseline="middle" x="204.5" y="266.5" class="">5</text><rect rx="6" ry="6" x="236.0" y="236.0" width="55" height="55" class="" /><text text-anchor="middle" dominant-baseline="middle" x="263.5" y="266.5" class="">6</text><rect rx="6" ry="6" x="118.0" y="295.0" width="55" height="55" class="" /><text text-anchor="middle" dominant-baseline="middle" x="145.5" y="325.5" class="">1</text><rect rx="6" ry="6" x="177.0" y="295.0" width="55" height="55" class="" /><text text-anchor="middle" dominant-baseline="middle" x="204.5" y="325.5" class="">2</text><rect rx="6" ry="6" x="236.0" y="295.0" width="55" height="55" class="" /><text text-anchor="middle" dominant-baseline="middle" x="263.5" y="325.5" class="">3</text><rect rx="6" ry="6" x="295.0" y="295.0" width="55" height="114" class="inverse" /><text text-anchor="middle" dominant-baseline="middle" x="322.5" y="355.0" class="text_inverted">enter</text><rect rx="6" ry="6" x="118.0" y="354.0" width="114" height="55" class="" /><text text-anchor="middle" dominant-baseline="middle" x="175.0" y="384.5" class="">0</text><rect rx="6" ry="6" x="236.0" y="354.0" width="55" height="55" class="" /><text text-anchor="middle" dominant-baseline="middle" x="263.5" y="384.5" class="">.</text><rect rx="6" ry="6" x="29.5" y="676.5" width="55" height="55" class="" /><text text-anchor="middle" dominant-baseline="middle" x="57.0" y="707.0" class="">mute</text><rect rx="6" ry="6" x="29.5" y="735.5" width="55" height="55" class="" /><text text-anchor="middle" dominant-baseline="middle" x="57.0" y="766.0" class="">default</text><rect rx="6" ry="6" x="29.5" y="794.5" width="55" height="55" class="" /><text text-anchor="middle" dominant-baseline="middle" x="57.0" y="825.0" class="">rgb</text><rect rx="6" ry="6" x="118.0" y="470.0" width="55" height="55" class="inverse" /><text text-anchor="middle" dominant-baseline="middle" x="145.5" y="500.5" class="text_inverted">f17</text><rect rx="6" ry="6" x="177.0" y="470.0" width="55" height="55" class="inverse" /><text text-anchor="middle" dominant-baseline="middle" x="204.5" y="500.5" class="text_inverted">f18</text><rect rx="6" ry="6" x="236.0" y="470.0" width="55" height="55" class="inverse" /><text text-anchor="middle" dominant-baseline="middle" x="263.5" y="500.5" class="text_inverted">f19</text><rect rx="6" ry="6" x="295.0" y="470.0" width="55" height="55" class="inverse" /><text text-anchor="middle" dominant-baseline="middle" x="322.5" y="500.5" class="text_inverted">f20</text><rect rx="6" ry="6" x="118.0" y="558.5" width="55" height="55" class="" /><text text-anchor="middle" dominant-baseline="middle" x="145.5" y="589.0" class="">\</text><rect rx="6" ry="6" x="177.0" y="558.5" width="55" height="55" class="" /><rect rx="6" ry="6" x="236.0" y="558.5" width="55" height="55" class="" /><rect rx="6" ry="6" x="295.0" y="558.5" width="55" height="55" class="" /><rect rx="6" ry="6" x="118.0" y="617.5" width="55" height="55" class="" /><text text-anchor="middle" dominant-baseline="middle" x="145.5" y="648.0" class="">&lt;</text><rect rx="6" ry="6" x="177.0" y="617.5" width="55" height="55" class="" /><text text-anchor="middle" dominant-baseline="middle" x="204.5" y="648.0" class="">&gt;</text><rect rx="6" ry="6" x="236.0" y="617.5" width="55" height="55" class="" /><rect rx="6" ry="6" x="295.0" y="617.5" width="55" height="114" class="" /><rect rx="6" ry="6" x="118.0" y="676.5" width="55" height="55" class="" /><rect rx="6" ry="6" x="177.0" y="676.5" width="55" height="55" class="" /><text text-anchor="middle" dominant-baseline="middle" x="204.5" y="707.0" class="">up</text><rect rx="6" ry="6" x="236.0" y="676.5" width="55" height="55" class="" /><rect rx="6" ry="6" x="118.0" y="735.5" width="55" height="55" class="" /><text text-anchor="middle" dominant-baseline="middle" x="145.5" y="766.0" class="">left</text><rect rx="6" ry="6" x="177.0" y="735.5" width="55" height="55" class="" /><text text-anchor="middle" dominant-baseline="middle" x="204.5" y="766.0" class="">down</text><rect rx="6" ry="6" x="236.0" y="735.5" width="55" height="55" class="" /><text text-anchor="middle" dominant-baseline="middle" x="263.5" y="766.0" class="">right</text><rect rx="6" ry="6" x="295.0" y="735.5" width="55" height="114" class="inverse" /><rect rx="6" ry="6" x="118.0" y="794.5" width="114" height="55" class="" /><rect rx="6" ry="6" x="236.0" y="794.5" width="55" height="55" class="" /><rect rx="6" ry="6" x="29.5" y="1117.0" width="55" height="55" class="" /><text text-anchor="middle" dominant-baseline="middle" x="57.0" y="1147.5" class="">mute</text><rect rx="6" ry="6" x="29.5" y="1176.0" width="55" height="55" class="" /><text text-anchor="middle" dominant-baseline="middle" x="57.0" y="1206.5" class="">nav</text><rect rx="6" ry="6" x="29.5" y="1235.0" width="55" height="55" class="" /><text text-anchor="middle" dominant-baseline="middle" x="57.0" y="1265.5" class="">default</text><rect rx="6" ry="6" x="118.0" y="910.5" width="55" height="55" class="inverse" /><text text-anchor="middle" dominant-baseline="middle" x="145.5" y="941.0" class="text_inverted">f17</text><rect rx="6" ry="6" x="177.0" y="910.5" width="55" height="55" class="inverse" /><text text-anchor="middle" dominant-baseline="middle" x="204.5" y="941.0" class="text_inverted">f18</text><rect rx="6" ry="6" x="236.0" y="910.5" width="55" height="55" class="inverse" /><text text-anchor="middle" dominant-baseline="middle" x="263.5" y="941.0" class="text_inverted">f19</text><rect rx="6" ry="6" x="295.0" y="910.5" width="55" height="55" class="inverse" /><text text-anchor="middle" dominant-baseline="middle" x="322.5" y="941.0" class="text_inverted">f20</text><rect rx="6" ry="6" x="118.0" y="999.0" width="55" height="55" class="" /><text text-anchor="middle" dominant-baseline="middle" x="145.5" y="1020.5" class="">rgb</text><text text-anchor="middle" dominant-baseline="middle" x="145.5" y="1038.5" class="">tog</text><rect rx="6" ry="6" x="177.0" y="999.0" width="55" height="55" class="" /><rect rx="6" ry="6" x="236.0" y="999.0" width="55" height="55" class="" /><rect rx="6" ry="6" x="295.0" y="999.0" width="55" height="55" class="" /><rect rx="6" ry="6" x="118.0" y="1058.0" width="55" height="55" class="" /><text text-anchor="middle" dominant-baseline="middle" x="145.5" y="1079.5" class="">hue</text><text text-anchor="middle" dominant-baseline="middle" x="145.5" y="1097.5" class="">down</text><rect rx="6" ry="6" x="177.0" y="1058.0" width="55" height="55" class="" /><text text-anchor="middle" dominant-baseline="middle" x="204.5" y="1079.5" class="">hue</text><text text-anchor="middle" dominant-baseline="middle" x="204.5" y="1097.5" class="">up</text><rect rx="6" ry="6" x="236.0" y="1058.0" width="55" height="55" class="" /><rect rx="6" ry="6" x="295.0" y="1058.0" width="55" height="114" class="" /><rect rx="6" ry="6" x="118.0" y="1117.0" width="55" height="55" class="" /><text text-anchor="middle" dominant-baseline="middle" x="145.5" y="1138.5" class="">sat</text><text text-anchor="middle" dominant-baseline="middle" x="145.5" y="1156.5" class="">down</text><rect rx="6" ry="6" x="177.0" y="1117.0" width="55" height="55" class="" /><text text-anchor="middle" dominant-baseline="middle" x="204.5" y="1138.5" class="">sat</text><text text-anchor="middle" dominant-baseline="middle" x="204.5" y="1156.5" class="">up</text><rect rx="6" ry="6" x="236.0" y="1117.0" width="55" height="55" class="" /><rect rx="6" ry="6" x="118.0" y="1176.0" width="55" height="55" class="" /><text text-anchor="middle" dominant-baseline="middle" x="145.5" y="1197.5" class="">bri</text><text text-anchor="middle" dominant-baseline="middle" x="145.5" y="1215.5" class="">down</text><rect rx="6" ry="6" x="177.0" y="1176.0" width="55" height="55" class="" /><text text-anchor="middle" dominant-baseline="middle" x="204.5" y="1197.5" class="">bri</text><text text-anchor="middle" dominant-baseline="middle" x="204.5" y="1215.5" class="">up</text><rect rx="6" ry="6" x="236.0" y="1176.0" width="55" height="55" class="" /><rect rx="6" ry="6" x="295.0" y="1176.0" width="55" height="114" class="inverse" /><rect rx="6" ry="6" x="118.0" y="1235.0" width="114" height="55" class="" /><rect rx="6" ry="6" x="236.0" y="1235.0" width="55" height="55" class="" /></svg>
