<svg width="672.5" height="1386.5" viewBox="0 0 672.5 1386.5" xmlns="http://www.w3.org/2000/svg">
<style>
    svg {
        font-family: SFMono-Regular,Consolas,Liberation Mono,Menlo,monospace;
        font-size: 14px;
        font-kerning: normal;
        text-rendering: optimizeLegibility;
        fill: #24292e;
    }

    rect {
        fill: #f6f8fa;
    }

    .held {
        fill: #fdd;
    }
</style>
<rect rx="6" ry="6" x="29.5" y="196.0" width="55" height="45" class="" />
<text text-anchor="middle" dominant-baseline="middle" x="57.0" y="218.5">mute</text>
<rect rx="6" ry="6" x="29.5" y="245.0" width="55" height="45" class="" />
<text text-anchor="middle" dominant-baseline="middle" x="57.0" y="267.5">rgb</text>
<rect rx="6" ry="6" x="29.5" y="294.0" width="55" height="45" class="" />
<text text-anchor="middle" dominant-baseline="middle" x="57.0" y="316.5">nav</text>
<rect rx="6" ry="6" x="118.0" y="24.5" width="55" height="45" class="" />
<text text-anchor="middle" dominant-baseline="middle" x="145.5" y="47.0">f17</text>
<rect rx="6" ry="6" x="177.0" y="24.5" width="55" height="45" class="" />
<text text-anchor="middle" dominant-baseline="middle" x="204.5" y="47.0">f18</text>
<rect rx="6" ry="6" x="236.0" y="24.5" width="55" height="45" class="" />
<text text-anchor="middle" dominant-baseline="middle" x="263.5" y="47.0">f19</text>
<rect rx="6" ry="6" x="295.0" y="24.5" width="55" height="45" class="" />
<text text-anchor="middle" dominant-baseline="middle" x="322.5" y="47.0">f20</text>
<rect rx="6" ry="6" x="118.0" y="98.0" width="55" height="45" class="" />
<text text-anchor="middle" dominant-baseline="middle" x="145.5" y="120.5">bspc</text>
<rect rx="6" ry="6" x="177.0" y="98.0" width="55" height="45" class="" />
<text text-anchor="middle" dominant-baseline="middle" x="204.5" y="120.5">div</text>
<rect rx="6" ry="6" x="236.0" y="98.0" width="55" height="45" class="" />
<text text-anchor="middle" dominant-baseline="middle" x="263.5" y="120.5">mult</text>
<rect rx="6" ry="6" x="295.0" y="98.0" width="55" height="45" class="" />
<text text-anchor="middle" dominant-baseline="middle" x="322.5" y="120.5">minus</text>
<rect rx="6" ry="6" x="118.0" y="147.0" width="55" height="45" class="" />
<text text-anchor="middle" dominant-baseline="middle" x="145.5" y="169.5">7</text>
<rect rx="6" ry="6" x="177.0" y="147.0" width="55" height="45" class="" />
<text text-anchor="middle" dominant-baseline="middle" x="204.5" y="169.5">8</text>
<rect rx="6" ry="6" x="236.0" y="147.0" width="55" height="45" class="" />
<text text-anchor="middle" dominant-baseline="middle" x="263.5" y="169.5">9</text>
<rect rx="6" ry="6" x="295.0" y="147.0" width="55" height="45" class="" />
<text text-anchor="middle" dominant-baseline="middle" x="322.5" y="169.5">plus</text>
<rect rx="6" ry="6" x="118.0" y="196.0" width="55" height="45" class="" />
<text text-anchor="middle" dominant-baseline="middle" x="145.5" y="218.5">4</text>
<rect rx="6" ry="6" x="177.0" y="196.0" width="55" height="45" class="" />
<text text-anchor="middle" dominant-baseline="middle" x="204.5" y="218.5">5</text>
<rect rx="6" ry="6" x="236.0" y="196.0" width="55" height="45" class="" />
<text text-anchor="middle" dominant-baseline="middle" x="263.5" y="218.5">6</text>
<rect rx="6" ry="6" x="295.0" y="196.0" width="55" height="45" class="" />
<rect rx="6" ry="6" x="118.0" y="245.0" width="55" height="45" class="" />
<text text-anchor="middle" dominant-baseline="middle" x="145.5" y="267.5">1</text>
<rect rx="6" ry="6" x="177.0" y="245.0" width="55" height="45" class="" />
<text text-anchor="middle" dominant-baseline="middle" x="204.5" y="267.5">2</text>
<rect rx="6" ry="6" x="236.0" y="245.0" width="55" height="45" class="" />
<text text-anchor="middle" dominant-baseline="middle" x="263.5" y="267.5">3</text>
<rect rx="6" ry="6" x="295.0" y="245.0" width="55" height="45" class="" />
<text text-anchor="middle" dominant-baseline="middle" x="322.5" y="267.5">enter</text>
<rect rx="6" ry="6" x="118.0" y="294.0" width="55" height="45" class="" />
<text text-anchor="middle" dominant-baseline="middle" x="145.5" y="316.5">0</text>
<rect rx="6" ry="6" x="177.0" y="294.0" width="55" height="45" class="" />
<rect rx="6" ry="6" x="236.0" y="294.0" width="55" height="45" class="" />
<text text-anchor="middle" dominant-baseline="middle" x="263.5" y="316.5">.</text>
<rect rx="6" ry="6" x="295.0" y="294.0" width="55" height="45" class="" />
<rect rx="6" ry="6" x="29.5" y="537.0" width="55" height="45" class="" />
<text text-anchor="middle" dominant-baseline="middle" x="57.0" y="559.5">mute</text>
<rect rx="6" ry="6" x="29.5" y="586.0" width="55" height="45" class="" />
<text text-anchor="middle" dominant-baseline="middle" x="57.0" y="608.5">default</text>
<rect rx="6" ry="6" x="29.5" y="635.0" width="55" height="45" class="" />
<text text-anchor="middle" dominant-baseline="middle" x="57.0" y="657.5">rgb</text>
<rect rx="6" ry="6" x="118.0" y="365.5" width="55" height="45" class="" />
<text text-anchor="middle" dominant-baseline="middle" x="145.5" y="388.0">f17</text>
<rect rx="6" ry="6" x="177.0" y="365.5" width="55" height="45" class="" />
<text text-anchor="middle" dominant-baseline="middle" x="204.5" y="388.0">f18</text>
<rect rx="6" ry="6" x="236.0" y="365.5" width="55" height="45" class="" />
<text text-anchor="middle" dominant-baseline="middle" x="263.5" y="388.0">f19</text>
<rect rx="6" ry="6" x="295.0" y="365.5" width="55" height="45" class="" />
<text text-anchor="middle" dominant-baseline="middle" x="322.5" y="388.0">f20</text>
<rect rx="6" ry="6" x="118.0" y="439.0" width="55" height="45" class="" />
<text text-anchor="middle" dominant-baseline="middle" x="145.5" y="461.5">\</text>
<rect rx="6" ry="6" x="177.0" y="439.0" width="55" height="45" class="" />
<rect rx="6" ry="6" x="236.0" y="439.0" width="55" height="45" class="" />
<rect rx="6" ry="6" x="295.0" y="439.0" width="55" height="45" class="" />
<rect rx="6" ry="6" x="118.0" y="488.0" width="55" height="45" class="" />
<text text-anchor="middle" dominant-baseline="middle" x="145.5" y="510.5">&lt;</text>
<rect rx="6" ry="6" x="177.0" y="488.0" width="55" height="45" class="" />
<text text-anchor="middle" dominant-baseline="middle" x="204.5" y="510.5">&gt;</text>
<rect rx="6" ry="6" x="236.0" y="488.0" width="55" height="45" class="" />
<rect rx="6" ry="6" x="295.0" y="488.0" width="55" height="45" class="" />
<rect rx="6" ry="6" x="118.0" y="537.0" width="55" height="45" class="" />
<rect rx="6" ry="6" x="177.0" y="537.0" width="55" height="45" class="" />
<text text-anchor="middle" dominant-baseline="middle" x="204.5" y="559.5">up</text>
<rect rx="6" ry="6" x="236.0" y="537.0" width="55" height="45" class="" />
<rect rx="6" ry="6" x="295.0" y="537.0" width="55" height="45" class="" />
<rect rx="6" ry="6" x="118.0" y="586.0" width="55" height="45" class="" />
<text text-anchor="middle" dominant-baseline="middle" x="145.5" y="608.5">left</text>
<rect rx="6" ry="6" x="177.0" y="586.0" width="55" height="45" class="" />
<text text-anchor="middle" dominant-baseline="middle" x="204.5" y="608.5">down</text>
<rect rx="6" ry="6" x="236.0" y="586.0" width="55" height="45" class="" />
<text text-anchor="middle" dominant-baseline="middle" x="263.5" y="608.5">right</text>
<rect rx="6" ry="6" x="295.0" y="586.0" width="55" height="45" class="" />
<rect rx="6" ry="6" x="118.0" y="635.0" width="55" height="45" class="" />
<rect rx="6" ry="6" x="177.0" y="635.0" width="55" height="45" class="" />
<rect rx="6" ry="6" x="236.0" y="635.0" width="55" height="45" class="" />
<rect rx="6" ry="6" x="295.0" y="635.0" width="55" height="45" class="" />
<rect rx="6" ry="6" x="29.5" y="878.0" width="55" height="45" class="" />
<text text-anchor="middle" dominant-baseline="middle" x="57.0" y="900.5">mute</text>
<rect rx="6" ry="6" x="29.5" y="927.0" width="55" height="45" class="" />
<text text-anchor="middle" dominant-baseline="middle" x="57.0" y="949.5">nav</text>
<rect rx="6" ry="6" x="29.5" y="976.0" width="55" height="45" class="" />
<text text-anchor="middle" dominant-baseline="middle" x="57.0" y="998.5">default</text>
<rect rx="6" ry="6" x="118.0" y="706.5" width="55" height="45" class="" />
<text text-anchor="middle" dominant-baseline="middle" x="145.5" y="729.0">f17</text>
<rect rx="6" ry="6" x="177.0" y="706.5" width="55" height="45" class="" />
<text text-anchor="middle" dominant-baseline="middle" x="204.5" y="729.0">f18</text>
<rect rx="6" ry="6" x="236.0" y="706.5" width="55" height="45" class="" />
<text text-anchor="middle" dominant-baseline="middle" x="263.5" y="729.0">f19</text>
<rect rx="6" ry="6" x="295.0" y="706.5" width="55" height="45" class="" />
<text text-anchor="middle" dominant-baseline="middle" x="322.5" y="729.0">f20</text>
<rect rx="6" ry="6" x="118.0" y="780.0" width="55" height="45" class="" />
<text text-anchor="middle" dominant-baseline="middle" x="145.5" y="793.5">toggle</text>
<text text-anchor="middle" dominant-baseline="middle" x="145.5" y="811.5">rgb</text>
<rect rx="6" ry="6" x="177.0" y="780.0" width="55" height="45" class="" />
<rect rx="6" ry="6" x="236.0" y="780.0" width="55" height="45" class="" />
<rect rx="6" ry="6" x="295.0" y="780.0" width="55" height="45" class="" />
<rect rx="6" ry="6" x="118.0" y="829.0" width="55" height="45" class="" />
<text text-anchor="middle" dominant-baseline="middle" x="145.5" y="842.5">hue</text>
<text text-anchor="middle" dominant-baseline="middle" x="145.5" y="860.5">down</text>
<rect rx="6" ry="6" x="177.0" y="829.0" width="55" height="45" class="" />
<text text-anchor="middle" dominant-baseline="middle" x="204.5" y="842.5">hue</text>
<text text-anchor="middle" dominant-baseline="middle" x="204.5" y="860.5">up</text>
<rect rx="6" ry="6" x="236.0" y="829.0" width="55" height="45" class="" />
<rect rx="6" ry="6" x="295.0" y="829.0" width="55" height="45" class="" />
<rect rx="6" ry="6" x="118.0" y="878.0" width="55" height="45" class="" />
<text text-anchor="middle" dominant-baseline="middle" x="145.5" y="891.5">saturation</text>
<text text-anchor="middle" dominant-baseline="middle" x="145.5" y="909.5">down</text>
<rect rx="6" ry="6" x="177.0" y="878.0" width="55" height="45" class="" />
<text text-anchor="middle" dominant-baseline="middle" x="204.5" y="891.5">saturation</text>
<text text-anchor="middle" dominant-baseline="middle" x="204.5" y="909.5">up</text>
<rect rx="6" ry="6" x="236.0" y="878.0" width="55" height="45" class="" />
<rect rx="6" ry="6" x="295.0" y="878.0" width="55" height="45" class="" />
<rect rx="6" ry="6" x="118.0" y="927.0" width="55" height="45" class="" />
<text text-anchor="middle" dominant-baseline="middle" x="145.5" y="940.5">brightness</text>
<text text-anchor="middle" dominant-baseline="middle" x="145.5" y="958.5">down</text>
<rect rx="6" ry="6" x="177.0" y="927.0" width="55" height="45" class="" />
<text text-anchor="middle" dominant-baseline="middle" x="204.5" y="940.5">brightness</text>
<text text-anchor="middle" dominant-baseline="middle" x="204.5" y="958.5">up</text>
<rect rx="6" ry="6" x="236.0" y="927.0" width="55" height="45" class="" />
<rect rx="6" ry="6" x="295.0" y="927.0" width="55" height="45" class="" />
<rect rx="6" ry="6" x="118.0" y="976.0" width="55" height="45" class="" />
<rect rx="6" ry="6" x="177.0" y="976.0" width="55" height="45" class="" />
<rect rx="6" ry="6" x="236.0" y="976.0" width="55" height="45" class="" />
<rect rx="6" ry="6" x="295.0" y="976.0" width="55" height="45" class="" />
</svg>
